<svg xmlns="http://www.w3.org/2000/svg" xmlns:xlink="http://www.w3.org/1999/xlink" width="500" zoomAndPan="magnify" viewBox="0 0 375 374.999991" height="500" preserveAspectRatio="xMidYMid meet" version="1.0"><defs><clipPath id="ac0fe51585"><path d="M 126.671875 65.644531 L 226.003906 65.644531 L 226.003906 307.726562 L 126.671875 307.726562 Z M 126.671875 65.644531 " clip-rule="nonzero"/></clipPath><clipPath id="fdae75ddf4"><path d="M 42.835938 102.851562 L 210.515625 102.851562 L 210.515625 270.519531 L 42.835938 270.519531 Z M 42.835938 102.851562 " clip-rule="nonzero"/></clipPath><clipPath id="f469e0c402"><path d="M 126.671875 102.851562 C 80.371094 102.851562 42.835938 140.386719 42.835938 186.6875 C 42.835938 232.988281 80.371094 270.519531 126.671875 270.519531 C 172.976562 270.519531 210.515625 232.988281 210.515625 186.6875 C 210.515625 140.386719 172.976562 102.851562 126.671875 102.851562 Z M 126.671875 102.851562 " clip-rule="nonzero"/></clipPath><clipPath id="1662b0ffa2"><path d="M 126.671875 102.851562 C 80.371094 102.851562 42.835938 140.386719 42.835938 186.6875 C 42.835938 232.988281 80.371094 270.519531 126.671875 270.519531 C 172.976562 270.519531 210.515625 232.988281 210.515625 186.6875 C 210.515625 140.386719 172.976562 102.851562 126.671875 102.851562 Z M 126.671875 102.851562 " clip-rule="nonzero"/></clipPath><clipPath id="70e4bc6e6e"><path d="M 203 65 L 373.875 65 L 373.875 308 L 203 308 Z M 203 65 " clip-rule="nonzero"/></clipPath></defs><g clip-path="url(#ac0fe51585)"><path fill="#ffffff" d="M 126.671875 65.644531 L 226.003906 65.644531 L 226.003906 307.75 L 126.671875 307.75 Z M 126.671875 65.644531 " fill-opacity="1" fill-rule="nonzero"/></g><g clip-path="url(#fdae75ddf4)"><g clip-path="url(#f469e0c402)"><g clip-path="url(#1662b0ffa2)"><path fill="#ffffff" d="M 42.835938 102.851562 L 210.515625 102.851562 L 210.515625 270.519531 L 42.835938 270.519531 Z M 42.835938 102.851562 " fill-opacity="1" fill-rule="nonzero"/></g></g></g><g clip-path="url(#70e4bc6e6e)"><path fill="#ffffff" d="M 288.1875 307.527344 L 203.597656 307.527344 L 203.597656 65.128906 L 281.363281 65.128906 C 296.328125 65.128906 309.613281 67.355469 321.222656 71.800781 C 332.828125 76.25 341.933594 83.136719 348.542969 92.464844 C 355.160156 101.792969 358.46875 114.046875 358.46875 129.230469 C 358.46875 145.933594 352.71875 159.597656 341.226562 170.222656 C 352.070312 177.601562 360.257812 186.390625 365.789062 196.582031 C 371.324219 206.769531 374.09375 217.722656 374.09375 229.4375 C 374.09375 245.921875 370.023438 259.964844 361.890625 271.570312 C 353.75 283.179688 343.175781 292.074219 330.160156 298.257812 C 317.152344 304.4375 303.160156 307.527344 288.1875 307.527344 Z M 254.027344 261.972656 L 289.820312 261.972656 C 300.230469 261.972656 308.25 259.15625 313.890625 253.515625 C 319.535156 247.882812 322.359375 240.398438 322.359375 231.070312 C 322.359375 221.304688 319.535156 213.601562 313.890625 207.964844 C 308.25 202.328125 300.230469 199.507812 289.820312 199.507812 L 254.027344 199.507812 Z M 254.027344 155.589844 L 279.402344 155.589844 C 287.644531 155.589844 293.667969 154.394531 297.46875 152.003906 C 301.265625 149.617188 303.761719 146.6875 304.953125 143.21875 C 306.140625 139.753906 306.738281 136.390625 306.738281 133.128906 C 306.738281 123.804688 303.914062 117.730469 298.277344 114.910156 C 292.640625 112.09375 286.347656 110.683594 279.402344 110.683594 L 254.027344 110.683594 Z M 254.027344 155.589844 " fill-opacity="1" fill-rule="nonzero"/></g><path fill="#000000" d="M 252.851562 174.433594 L 252.851562 181.660156 C 252.851562 199.125 249.652344 215.527344 243.257812 230.878906 C 236.871094 246.210938 228.03125 259.734375 216.738281 271.445312 C 205.4375 283.175781 192.324219 292.285156 177.398438 298.792969 C 162.460938 305.296875 146.460938 308.550781 129.40625 308.550781 C 112.351562 308.550781 96.40625 305.351562 81.574219 298.953125 C 66.761719 292.558594 53.757812 283.710938 42.5625 272.410156 C 31.375 261.113281 22.628906 248.058594 16.347656 233.246094 C 10.050781 218.417969 6.902344 202.480469 6.902344 185.433594 C 6.902344 168.382812 10.050781 152.398438 16.34375 137.46875 C 22.628906 122.546875 31.371094 109.441406 42.5625 98.140625 C 53.757812 86.839844 66.761719 77.992188 81.574219 71.597656 C 96.40625 65.199219 112.246094 61.996094 129.089844 61.996094 C 151.253906 61.996094 171.667969 67.273438 190.324219 77.828125 C 208.980469 88.378906 223.640625 102.402344 234.308594 119.902344 L 235.34375 121.601562 L 192.753906 152.515625 L 191.59375 150.308594 C 185.699219 139.132812 177.210938 130.085938 166.125 123.171875 C 155.058594 116.265625 142.816406 112.816406 129.40625 112.816406 C 116.832031 112.816406 105.378906 116.058594 95.046875 122.539062 C 84.679688 129.042969 76.441406 137.792969 70.339844 148.78125 C 64.234375 159.761719 61.183594 171.980469 61.183594 185.433594 C 61.183594 198.671875 64.234375 210.785156 70.339844 221.773438 C 76.441406 232.75 84.671875 241.445312 95.035156 247.847656 C 105.371094 254.226562 116.828125 257.417969 129.40625 257.417969 C 143.25 257.417969 155.917969 253.964844 167.410156 247.046875 C 178.820312 240.179688 187.058594 230.171875 192.117188 217.019531 L 194.132812 217.792969 L 194.132812 219.953125 L 128.5 219.953125 L 128.5 172.277344 L 252.851562 172.277344 Z M 248.53125 174.433594 L 250.6875 174.433594 L 250.6875 176.59375 L 130.664062 176.59375 L 130.664062 174.433594 L 132.820312 174.433594 L 132.820312 217.792969 L 130.664062 217.792969 L 130.664062 215.632812 L 197.277344 215.632812 L 196.148438 218.570312 C 190.734375 232.644531 181.894531 243.371094 169.636719 250.746094 C 157.460938 258.074219 144.050781 261.742188 129.40625 261.742188 C 116.011719 261.742188 103.796875 258.332031 92.765625 251.519531 C 81.761719 244.726562 73.027344 235.507812 66.5625 223.871094 C 60.097656 212.230469 56.863281 199.417969 56.863281 185.433594 C 56.863281 171.234375 60.097656 158.316406 66.5625 146.679688 C 73.027344 135.046875 81.753906 125.78125 92.75 118.882812 C 103.789062 111.957031 116.003906 108.496094 129.40625 108.496094 C 143.644531 108.496094 156.644531 112.164062 168.410156 119.507812 C 180.15625 126.832031 189.160156 136.429688 195.414062 148.292969 L 193.503906 149.300781 L 192.234375 147.554688 L 231.195312 119.277344 L 232.464844 121.023438 L 230.617188 122.148438 C 220.34375 105.292969 206.199219 91.773438 188.199219 81.585938 C 170.199219 71.40625 150.496094 66.316406 129.089844 66.316406 C 112.84375 66.316406 97.570312 69.398438 83.289062 75.5625 C 68.984375 81.738281 56.433594 90.277344 45.632812 101.179688 C 34.832031 112.082031 26.394531 124.738281 20.324219 139.140625 C 14.257812 153.535156 11.226562 168.96875 11.226562 185.433594 C 11.226562 201.894531 14.253906 217.273438 20.320312 231.558594 C 26.394531 245.863281 34.828125 258.464844 45.632812 269.371094 C 56.433594 280.273438 68.984375 288.808594 83.289062 294.984375 C 97.570312 301.148438 112.945312 304.234375 129.40625 304.234375 C 145.863281 304.234375 161.289062 301.097656 175.671875 294.832031 C 190.074219 288.554688 202.722656 279.761719 213.628906 268.449219 C 224.542969 257.125 233.089844 244.046875 239.269531 229.214844 C 245.445312 214.398438 248.53125 198.550781 248.53125 181.660156 Z M 248.53125 174.433594 " fill-opacity="1" fill-rule="nonzero"/><path fill="#000000" d="M 250.6875 174.4375 L 250.6875 181.660156 C 250.6875 198.839844 247.542969 214.972656 241.257812 230.054688 C 234.976562 245.128906 226.285156 258.429688 215.183594 269.949219 C 204.078125 281.476562 191.199219 290.429688 176.535156 296.816406 C 161.871094 303.203125 146.15625 306.398438 129.398438 306.398438 C 112.648438 306.398438 96.992188 303.257812 82.429688 296.96875 C 67.878906 290.679688 55.097656 281.992188 44.097656 270.898438 C 33.101562 259.796875 24.511719 246.96875 18.328125 232.414062 C 12.148438 217.855469 9.058594 202.195312 9.058594 185.433594 C 9.058594 168.679688 12.148438 152.964844 18.328125 138.304688 C 24.511719 123.640625 33.101562 110.761719 44.097656 99.65625 C 55.097656 88.558594 67.878906 79.867188 82.429688 73.585938 C 96.992188 67.296875 112.542969 64.15625 129.085938 64.15625 C 150.875 64.15625 170.9375 69.339844 189.261719 79.710938 C 207.582031 90.082031 221.988281 103.851562 232.46875 121.019531 L 193.503906 149.300781 C 187.425781 137.777344 178.679688 128.457031 167.265625 121.335938 C 155.851562 114.21875 143.230469 110.65625 129.398438 110.65625 C 116.410156 110.65625 104.578125 114.011719 93.894531 120.71875 C 83.214844 127.417969 74.726562 136.421875 68.441406 147.734375 C 62.160156 159.042969 59.019531 171.605469 59.019531 185.433594 C 59.019531 199.046875 62.160156 211.507812 68.441406 222.820312 C 74.726562 234.132812 83.214844 243.089844 93.894531 249.6875 C 104.578125 256.285156 116.410156 259.585938 129.398438 259.585938 C 143.652344 259.585938 156.695312 256.027344 168.53125 248.902344 C 180.363281 241.773438 188.898438 231.40625 194.136719 217.792969 L 130.664062 217.792969 L 130.664062 174.4375 Z M 250.6875 174.4375 " fill-opacity="1" fill-rule="nonzero"/></svg>