<svg width="462" height="88" viewBox="0 0 462 88" fill="none" xmlns="http://www.w3.org/2000/svg">
<g clip-path="url(#clip0_1_5)">
<path d="M189.361 87.6901V0.405805" stroke="#F3F6FA" stroke-width="5" stroke-linecap="round"/>
<mask id="mask0_1_5" style="mask-type:luminance" maskUnits="userSpaceOnUse" x="218" y="2" width="114" height="45">
<path d="M331.445 2.16718H218.101V46.5192H331.445V2.16718Z" fill="white"/>
</mask>
<g mask="url(#mask0_1_5)">
<mask id="mask1_1_5" style="mask-type:luminance" maskUnits="userSpaceOnUse" x="218" y="10" width="23" height="28">
<path d="M218.149 10.7912H240.277V37.8952H218.149V10.7912Z" fill="white"/>
</mask>
<g mask="url(#mask1_1_5)">
<path d="M231.474 37.6873H227.085V15.2033H218.769V11.2571H239.867V15.2033H231.474V37.6873Z" fill="#F3F6FA"/>
</g>
<path d="M251.122 37.6873H246.54L256.011 11.2571H260.862L270.314 37.6873H265.733L263.808 31.8931H253.085L251.122 37.6873ZM258.437 15.9541L254.375 28.0623H262.479L258.437 15.9541Z" fill="#F3F6FA"/>
<path d="M294.9 37.6873H279.077V11.2571H283.466V33.7411H294.9V37.6873Z" fill="#F3F6FA"/>
<path d="M308.166 37.6873H303.777V11.2571H308.166V23.0958L318.041 11.2571H323.489L312.574 24.0006L323.912 37.6873H318.368L308.166 25.2518V37.6873Z" fill="#F3F6FA"/>
</g>
<mask id="mask2_1_5" style="mask-type:luminance" maskUnits="userSpaceOnUse" x="218" y="45" width="211" height="41">
<path d="M428.773 45.2872H218.101V85.9432H428.773V45.2872Z" fill="white"/>
</mask>
<g mask="url(#mask2_1_5)">
<path d="M229.896 78.2981C228.726 78.2981 227.567 78.1537 226.412 77.8746C225.257 77.5955 224.188 77.1383 223.216 76.5078C222.239 75.8678 221.426 75.0352 220.771 74.0053C220.127 72.9658 219.717 71.7098 219.539 70.2323H223.62C223.9 71.4162 224.371 72.345 225.026 73.0236C225.68 73.707 226.441 74.1786 227.316 74.4481C228.187 74.7176 229.068 74.8523 229.954 74.8523C231.364 74.8523 232.514 74.5588 233.399 73.9668C234.285 73.3653 234.728 72.4461 234.728 71.2141C234.728 70.266 234.439 69.5345 233.861 69.0196C233.284 68.5095 232.524 68.11 231.59 67.8261C230.666 67.547 229.665 67.2823 228.587 67.0368C227.624 66.8347 226.652 66.6037 225.68 66.3438C224.718 66.0743 223.832 65.7038 223.024 65.2273C222.225 64.7557 221.585 64.1253 221.099 63.3408C220.608 62.5612 220.367 61.5458 220.367 60.2993C220.367 58.8123 220.733 57.5562 221.464 56.5263C222.196 55.5013 223.182 54.7265 224.429 54.1971C225.685 53.6581 227.105 53.3886 228.683 53.3886C230.185 53.3886 231.595 53.6485 232.918 54.1586C234.251 54.6735 235.382 55.4772 236.306 56.5648C237.24 57.6428 237.832 59.0385 238.077 60.7421H234.073C233.727 59.3561 233.053 58.3647 232.052 57.7583C231.051 57.1423 229.906 56.8343 228.625 56.8343C227.34 56.8343 226.315 57.1135 225.545 57.6621C224.775 58.2011 224.39 58.9663 224.39 59.9528C224.39 60.7758 224.66 61.4255 225.199 61.8971C225.738 62.3591 226.436 62.72 227.297 62.9751C228.154 63.2205 229.092 63.4563 230.108 63.6873C231.118 63.9087 232.134 64.1638 233.149 64.4573C234.16 64.7557 235.084 65.1503 235.921 65.6508C236.768 66.1417 237.447 66.8155 237.962 67.6721C238.486 68.5191 238.751 69.6163 238.751 70.9638C238.751 73.1968 237.981 74.9823 236.441 76.3153C234.901 77.6388 232.716 78.2981 229.896 78.2981Z" fill="#F3F6FA"/>
<path d="M258.493 78.2981C256.539 78.2981 254.836 77.9612 253.373 77.2971C251.919 76.6185 250.721 75.6993 249.773 74.5443C248.82 73.3797 248.118 72.0515 247.656 70.5596C247.194 69.0581 246.963 67.4748 246.963 65.8048C246.963 64.1493 247.194 62.5805 247.656 61.0886C248.118 59.6015 248.82 58.2781 249.773 57.1231C250.721 55.9585 251.919 55.0441 253.373 54.3896C254.836 53.7255 256.539 53.3886 258.493 53.3886C260.457 53.3886 262.156 53.7255 263.595 54.3896C265.043 55.0441 266.251 55.9585 267.214 57.1231C268.176 58.2781 268.888 59.6015 269.35 61.0886C269.812 62.5805 270.043 64.1493 270.043 65.8048C270.043 67.4748 269.812 69.0581 269.35 70.5596C268.888 72.0515 268.176 73.3797 267.214 74.5443C266.251 75.6993 265.043 76.6185 263.595 77.2971C262.156 77.9612 260.457 78.2981 258.493 78.2981ZM258.493 74.6983C260.096 74.6983 261.443 74.323 262.536 73.5626C263.638 72.807 264.47 71.7627 265.038 70.4248C265.616 69.0773 265.905 67.5373 265.905 65.8048C265.905 64.0868 265.616 62.566 265.038 61.2426C264.47 59.9095 263.638 58.8652 262.536 58.1048C261.443 57.3348 260.096 56.9498 258.493 56.9498C256.915 56.9498 255.572 57.3348 254.47 58.1048C253.363 58.8652 252.526 59.9095 251.948 61.2426C251.38 62.566 251.101 64.0868 251.101 65.8048C251.101 67.5373 251.38 69.0773 251.948 70.4248C252.526 71.7627 253.363 72.807 254.47 73.5626C255.572 74.323 256.915 74.6983 258.493 74.6983Z" fill="#F3F6FA"/>
<path d="M293.6 77.8938H279.144V53.7543H283.148V74.2941H293.6V77.8938Z" fill="#F3F6FA"/>
<path d="M310.943 78.2981C308.734 78.2981 306.929 77.9227 305.534 77.1816C304.148 76.4405 303.118 75.3865 302.454 74.0246C301.785 72.6675 301.453 71.089 301.453 69.2891V53.7543H305.476V69.2891C305.476 70.8965 305.885 72.2055 306.708 73.2161C307.526 74.2315 308.941 74.7368 310.943 74.7368C312.945 74.7368 314.35 74.2315 315.159 73.2161C315.977 72.2055 316.391 70.8965 316.391 69.2891V53.7543H320.395V69.2891C320.395 71.089 320.068 72.6675 319.413 74.0246C318.759 75.3865 317.738 76.4405 316.352 77.1816C314.966 77.9227 313.162 78.2981 310.943 78.2981Z" fill="#F3F6FA"/>
<path d="M339.907 77.8938H335.884V57.3733H328.299V53.7543H347.549V57.3733H339.907V77.8938Z" fill="#F3F6FA"/>
<path d="M359.619 77.8938H355.615V53.7543H359.619V77.8938Z" fill="#F3F6FA"/>
<path d="M380.297 78.2981C378.343 78.2981 376.64 77.9612 375.177 77.2971C373.723 76.6185 372.525 75.6993 371.577 74.5443C370.624 73.3797 369.921 72.0515 369.459 70.5596C368.997 69.0581 368.766 67.4748 368.766 65.8048C368.766 64.1493 368.997 62.5805 369.459 61.0886C369.921 59.6015 370.624 58.2781 371.577 57.1231C372.525 55.9585 373.723 55.0441 375.177 54.3896C376.64 53.7255 378.343 53.3886 380.297 53.3886C382.261 53.3886 383.959 53.7255 385.398 54.3896C386.847 55.0441 388.055 55.9585 389.017 57.1231C389.98 58.2781 390.692 59.6015 391.154 61.0886C391.616 62.5805 391.847 64.1493 391.847 65.8048C391.847 67.4748 391.616 69.0581 391.154 70.5596C390.692 72.0515 389.98 73.3797 389.017 74.5443C388.055 75.6993 386.847 76.6185 385.398 77.2971C383.959 77.9612 382.261 78.2981 380.297 78.2981ZM380.297 74.6983C381.9 74.6983 383.247 74.323 384.34 73.5626C385.442 72.807 386.274 71.7627 386.842 70.4248C387.42 69.0773 387.708 67.5373 387.708 65.8048C387.708 64.0868 387.42 62.566 386.842 61.2426C386.274 59.9095 385.442 58.8652 384.34 58.1048C383.247 57.3348 381.9 56.9498 380.297 56.9498C378.719 56.9498 377.376 57.3348 376.274 58.1048C375.167 58.8652 374.33 59.9095 373.752 61.2426C373.184 62.566 372.905 64.0868 372.905 65.8048C372.905 67.5373 373.184 69.0773 373.752 70.4248C374.33 71.7627 375.167 72.807 376.274 73.5626C377.376 74.323 378.719 74.6983 380.297 74.6983Z" fill="#F3F6FA"/>
<path d="M404.952 77.8938H400.948V53.7543H405.818L416.02 72.3498V53.7543H420.005V77.8938H415.173L404.952 59.2983V77.8938Z" fill="#F3F6FA"/>
</g>
<mask id="mask3_1_5" style="mask-type:luminance" maskUnits="userSpaceOnUse" x="75" y="2" width="35" height="83">
<path d="M75.3382 2.30673H109.223V84.8026H75.3382V2.30673Z" fill="white"/>
</mask>
<g mask="url(#mask3_1_5)">
<mask id="mask4_1_5" style="mask-type:luminance" maskUnits="userSpaceOnUse" x="75" y="2" width="35" height="84">
<path d="M109.685 2.16718H75.189V85.9432H109.685V2.16718Z" fill="white"/>
</mask>
<g mask="url(#mask4_1_5)">
<mask id="mask5_1_5" style="mask-type:luminance" maskUnits="userSpaceOnUse" x="75" y="2" width="35" height="83">
<path d="M75.3382 2.30673H109.223V84.8026H75.3382V2.30673Z" fill="white"/>
</mask>
<g mask="url(#mask5_1_5)">
<path d="M75.3382 2.30673H109.223V84.7593H75.3382V2.30673Z" fill="white"/>
</g>
</g>
</g>
<mask id="mask6_1_5" style="mask-type:luminance" maskUnits="userSpaceOnUse" x="49" y="15" width="58" height="58">
<path d="M49.2545 15.4208H106.451V72.6174H49.2545V15.4208Z" fill="white"/>
</mask>
<g mask="url(#mask6_1_5)">
<mask id="mask7_1_5" style="mask-type:luminance" maskUnits="userSpaceOnUse" x="49" y="15" width="58" height="58">
<path d="M77.8503 15.4208C62.0605 15.4208 49.2545 28.2221 49.2545 44.0167C49.2545 59.8113 62.0605 72.6174 77.8503 72.6174C93.645 72.6174 106.451 59.8113 106.451 44.0167C106.451 28.2221 93.645 15.4208 77.8503 15.4208Z" fill="white"/>
</mask>
<g mask="url(#mask7_1_5)">
<mask id="mask8_1_5" style="mask-type:luminance" maskUnits="userSpaceOnUse" x="48" y="14" width="60" height="60">
<path d="M107.221 14.4872H48.085V73.6232H107.221V14.4872Z" fill="white"/>
</mask>
<g mask="url(#mask8_1_5)">
<mask id="mask9_1_5" style="mask-type:luminance" maskUnits="userSpaceOnUse" x="49" y="15" width="58" height="58">
<path d="M49.2545 15.4208H106.451V72.6174H49.2545V15.4208Z" fill="white"/>
</mask>
<g mask="url(#mask9_1_5)">
<mask id="mask10_1_5" style="mask-type:luminance" maskUnits="userSpaceOnUse" x="49" y="15" width="58" height="58">
<path d="M77.8503 15.4208C62.0605 15.4208 49.2545 28.2221 49.2545 44.0167C49.2545 59.8113 62.0605 72.6174 77.8503 72.6174C93.645 72.6174 106.451 59.8113 106.451 44.0167C106.451 28.2221 93.645 15.4208 77.8503 15.4208Z" fill="white"/>
</mask>
<g mask="url(#mask10_1_5)">
<path d="M49.2545 15.4208H106.451V72.6174H49.2545V15.4208Z" fill="white"/>
</g>
</g>
</g>
</g>
</g>
<path d="M134.23 84.8107H105.393V2.20895H131.9C136.992 2.20895 141.516 2.96933 145.472 4.48045C149.423 5.99639 152.527 8.34489 154.789 11.526C157.046 14.6974 158.177 18.8746 158.177 24.0577C158.177 29.7461 156.213 34.395 152.286 38.014C155.982 40.5309 158.773 43.5291 160.66 47.0037C162.546 50.4831 163.49 54.2176 163.49 58.2072C163.49 63.8186 162.104 68.6022 159.332 72.5677C156.56 76.5236 152.95 79.5506 148.513 81.6537C144.086 83.7616 139.321 84.8107 134.23 84.8107ZM122.583 69.2952H134.769C138.32 69.2952 141.054 68.3327 142.969 66.4077C144.894 64.4827 145.857 61.9321 145.857 58.7462C145.857 55.4256 144.894 52.8076 142.969 50.8922C141.054 48.9672 138.32 48.0047 134.769 48.0047H122.583V69.2952ZM122.583 33.0282H131.227C134.037 33.0282 136.087 32.624 137.387 31.8155C138.681 30.9973 139.528 29.9963 139.928 28.8125C140.337 27.6334 140.544 26.4928 140.544 25.386C140.544 22.2049 139.581 20.1307 137.656 19.1682C135.731 18.2057 133.585 17.7245 131.227 17.7245H122.583V33.0282Z" fill="white"/>
<path d="M119.793 39.6839V42.2345C119.793 48.3945 118.662 54.1839 116.405 59.6028C114.153 65.0121 111.035 69.7861 107.05 73.92C103.06 78.0588 98.4355 81.2735 93.1658 83.5691C87.8962 85.8646 82.2511 87.0148 76.2307 87.0148C70.2102 87.0148 64.5844 85.8839 59.3532 83.6268C54.122 81.3698 49.5357 78.2464 45.5847 74.2569C41.6336 70.2721 38.5536 65.6666 36.3302 60.4354C34.1117 55.2042 33 49.5784 33 43.5628C33 37.5471 34.1117 31.9021 36.3302 26.6372C38.5488 21.3723 41.6336 16.7427 45.5847 12.7579C49.5357 8.76838 54.122 5.64506 59.3532 3.388C64.5844 1.13094 70.1765 0 76.12 0C83.9403 0 91.1446 1.86244 97.7281 5.58731C104.312 9.31219 109.485 14.2643 113.248 20.4339L113.614 21.0354L98.5847 31.9454L98.1757 31.1658C96.0967 27.2243 93.0985 24.0288 89.1859 21.5889C85.283 19.1538 80.9613 17.9362 76.2307 17.9362C71.7935 17.9362 67.751 19.0816 64.108 21.3675C60.4457 23.6631 57.5389 26.7527 55.3877 30.6268C53.2317 34.5056 52.1537 38.8176 52.1537 43.5628C52.1537 48.2357 53.2317 52.5092 55.3877 56.3881C57.5389 60.2621 60.4457 63.3325 64.1032 65.5896C67.7462 67.8418 71.7935 68.9679 76.2307 68.9679C81.1153 68.9679 85.5862 67.7504 89.6431 65.3056C93.6664 62.8849 96.5731 59.3526 98.3585 54.7085L99.0708 54.9828V55.748H75.913V38.9187H119.793V39.6839ZM118.268 39.6839H119.028V40.4443H76.6734V39.6839H77.4338V54.9828H76.6734V54.2224H100.182L99.783 55.2571C97.8725 60.2236 94.754 64.0111 90.4275 66.6146C86.13 69.1989 81.3993 70.4935 76.2307 70.4935C71.5048 70.4935 67.1928 69.2904 63.2995 66.8889C59.4158 64.4875 56.3358 61.2343 54.0547 57.1292C51.7735 53.0193 50.633 48.5004 50.633 43.5628C50.633 38.5529 51.7735 33.9955 54.0547 29.8856C56.3358 25.7806 59.4158 22.5129 63.2947 20.0778C67.188 17.633 71.5 16.4106 76.2307 16.4106C81.2549 16.4106 85.8412 17.7052 89.9944 20.2991C94.138 22.8834 97.3142 26.2714 99.5232 30.4583L98.8494 30.8144L98.4019 30.1936L112.151 20.2173L112.599 20.8333L111.949 21.2279C108.32 15.2797 103.33 10.5105 96.9774 6.91556C90.6248 3.32063 83.6756 1.52556 76.12 1.52556C70.3835 1.52556 64.9983 2.61319 59.9548 4.78844C54.9065 6.9685 50.479 9.98113 46.6675 13.8311C42.856 17.6763 39.877 22.1423 37.7355 27.2291C35.5939 32.3063 34.5255 37.7541 34.5255 43.5628C34.5255 49.3714 35.5939 54.7999 37.7355 59.8434C39.877 64.8918 42.856 69.3385 46.6675 73.1885C50.479 77.0337 54.9065 80.0463 59.9548 82.2264C64.9983 84.4016 70.422 85.4893 76.2307 85.4893C82.0393 85.4893 87.4823 84.3824 92.5595 82.1734C97.6415 79.9597 102.103 76.8556 105.953 72.8613C109.803 68.8621 112.82 64.2469 115 59.0157C117.18 53.7845 118.268 48.1924 118.268 42.2345V39.6839Z" fill="black"/>
<path d="M119.033 39.6887V42.2297C119.033 48.2886 117.921 53.9818 115.703 59.3044C113.479 64.6319 110.414 69.3289 106.501 73.3954C102.584 77.4668 98.0361 80.6286 92.8531 82.8857C87.6796 85.1283 82.1356 86.2544 76.2211 86.2544C70.3161 86.2544 64.7914 85.1428 59.6468 82.9242C54.5119 80.7056 50.0026 77.6401 46.1141 73.7227C42.2352 69.8101 39.2081 65.2864 37.0281 60.1514C34.8432 55.0069 33.7556 49.4773 33.7556 43.5579C33.7556 37.6434 34.8432 32.0994 37.0281 26.9259C39.2081 21.7573 42.2352 17.2143 46.1141 13.2969C50.0026 9.38439 54.5119 6.31882 59.6468 4.09545C64.7914 1.87689 70.2824 0.765198 76.1248 0.765198C83.8104 0.765198 90.8896 2.59395 97.3576 6.25145C103.826 9.90895 108.908 14.7696 112.604 20.8237L98.8591 30.8144C96.7031 26.7479 93.6086 23.4561 89.5806 20.9392C85.5621 18.4271 81.1106 17.1662 76.2211 17.1662C71.6396 17.1662 67.4623 18.3549 63.6893 20.7274C59.9259 23.0904 56.9374 26.2666 54.7188 30.2562C52.4954 34.2506 51.3886 38.6829 51.3886 43.5579C51.3886 48.3704 52.4954 52.7739 54.7188 56.7634C56.9374 60.7578 59.9259 63.9196 63.6893 66.2537C67.4623 68.5781 71.6396 69.7379 76.2211 69.7379C81.2501 69.7379 85.8509 68.4819 90.0233 65.9649C94.2054 63.4528 97.2228 59.7953 99.0708 54.9924H76.6831V39.6887H119.033Z" fill="#03011B"/>
</g>
<defs>
<clipPath id="clip0_1_5">
<rect width="462" height="88" fill="white"/>
</clipPath>
</defs>
</svg>
